<svg xmlns="http://www.w3.org/2000/svg" width="17.131" height="18.49"><defs><clipPath id="clip-path"><path fill="none" d="M0 0h17.131v18.49H0z"/></clipPath></defs><g id="Component" clip-path="url(#clip-path)" fill="none"><g id="Group_1" data-name="Group 1" transform="translate(.566 3.924)" stroke="#fff" stroke-width="1"><path id="Line_5" data-name="Line 5" stroke-linecap="round" d="M0 14L2 0"/><path id="Line_7" data-name="Line 7" transform="translate(0 14)" stroke-linecap="round" d="M0 0h16"/><path id="Line_8" data-name="Line 8" transform="translate(14)" stroke-linecap="round" d="M2 14L0 0"/><path id="Line_9" data-name="Line 9" transform="translate(2)" d="M0 0h12"/></g><g id="Path_1" data-name="Path 1"><path d="M4.424 0a4.424 4.424 0 0 1 4.424 4.424H0A4.424 4.424 0 0 1 4.424 0z" transform="translate(4.066)"/><path d="M4.424 1a3.43 3.43 0 0 0-3.275 2.424h6.55A3.43 3.43 0 0 0 4.424 1m0-1a4.424 4.424 0 0 1 4.424 4.424H0A4.424 4.424 0 0 1 4.424 0z" fill="#fff" transform="translate(4.066)"/></g></g></svg>