<svg xmlns="http://www.w3.org/2000/svg" width="13.575" height="13.576"><g id="Component_40_1" data-name="Component 40 – 1"><g id="Group_613" data-name="Group 613"><g id="Path_1374" data-name="Path 1374" fill="#f9f9f9"><path d="M6.788 13.2A6.42 6.42 0 0 1 .375 6.789 6.42 6.42 0 0 1 6.788.375 6.42 6.42 0 0 1 13.2 6.788 6.42 6.42 0 0 1 6.788 13.2z"/><path d="M6.788.75A6.045 6.045 0 0 0 .75 6.788a6.045 6.045 0 0 0 6.038 6.038 6.045 6.045 0 0 0 6.038-6.038A6.045 6.045 0 0 0 6.788.75m0-.75a6.788 6.788 0 1 1 0 13.576A6.788 6.788 0 0 1 6.788 0z" fill="#707070"/></g></g><path id="Path_1375" data-name="Path 1375" d="M3.634 12.26l8.644-8.644" fill="none" stroke="#707070" stroke-width="1"/><path id="Path_1376" data-name="Path 1376" d="M5.612 13.025l7.565-7.32" fill="none" stroke="#707070" stroke-width="1"/><path id="Path_1377" data-name="Path 1377" d="M7.626 13.174l2.652-2.6 2.03-1.993.312-.307" fill="none" stroke="#707070" stroke-width="1"/></g></svg>