<svg xmlns="http://www.w3.org/2000/svg" width="15" height="19"><defs><clipPath id="clip-path"><path fill="none" d="M0 0h15v19H0z"/></clipPath></defs><g id="Component_11" data-name="Component 11" clip-path="url(#clip-path)" fill="none"><g id="Group_189" data-name="Group 189" transform="translate(-1183 -25)"><g id="Subtraction_1" data-name="Subtraction 1"><path d="M-9007-178.5a7.434 7.434 0 0 0-4.5-1.5 7.438 7.438 0 0 0-4.5 1.5v-2a4.5 4.5 0 0 1 4.5-4.5 4.5 4.5 0 0 1 4.5 4.5v2z" transform="translate(10202 210)"/><path d="M-9007.999-180.25v-.25c0-1.93-1.57-3.5-3.5-3.5s-3.5 1.57-3.5 3.5v.25a8.45 8.45 0 0 1 3.5-.75c1.226 0 2.41.256 3.5.75m1 1.75l-.002-.001a7.434 7.434 0 0 0-4.498-1.5 7.438 7.438 0 0 0-4.5 1.5v-2c0-2.48 2.019-4.5 4.5-4.5s4.5 2.02 4.5 4.5v2.001z" fill="#5e5d5b" transform="translate(10202 210)"/></g><g id="Union_1" data-name="Union 1"><path d="M-2202-177.5v-3a2.5 2.5 0 0 1-1-2 2.5 2.5 0 0 1 2.5-2.5 2.5 2.5 0 0 1 2.5 2.5 2.5 2.5 0 0 1-1 2v3a1.5 1.5 0 0 1-1.5 1.5 1.5 1.5 0 0 1-1.5-1.5z" transform="translate(3391 217)"/><path d="M-2200.5-177a.5.5 0 0 0 .5-.5v-3.5l.4-.3a1.502 1.502 0 0 0-.9-2.7 1.502 1.502 0 0 0-.9 2.7l.4.3v3.5a.5.5 0 0 0 .5.5m0 1a1.5 1.5 0 0 1-1.5-1.5v-3a2.5 2.5 0 1 1 3 0v3a1.5 1.5 0 0 1-1.5 1.5z" fill="#5e5d5b" transform="translate(3391 217)"/></g></g><g id="Ellipse_23" data-name="Ellipse 23" transform="translate(0 4)" stroke="#5e5d5b" stroke-width="1"><circle cx="7.5" cy="7.5" r="7.5" stroke="none"/><circle cx="7.5" cy="7.5" r="7"/></g></g></svg>