<svg xmlns="http://www.w3.org/2000/svg" width="3508" height="2248"><path d="M3417.1 1216.3c-20.6-7.9-57.7 59.6-85.2 104.6s-89.3 135.3-149.4 116.7c-60.1-18.7-46.2-175.2-7.8-309 38.4-133.8 50.9-169.8-5.2-168.1s-115.8 212.6-128.5 241.9c-9.2 21.3-59.8 46.6-86.6 58.8 24.5-59.7 38.5-137.6 11.2-225.4-31.4-101-142.4-171.3-265.8-166.3-123.4 4.9-238.9 118.4-238.9 118.4s-18.6-126.3-21.3-141c-2.7-14.6-10.5-83.5-75.8-69.1-65.3 14.5-54.2 79.5-43.2 107.1 11 27.6 39.7 103.8 40.7 116.2l.5 39.3c-6.8 84.5-63.1 165.4-63.1 165.4s-82.2 128.3-164.3 125.2c-82.1-3.1-96.6-134.1-96.6-134.1s52.1-110.4 65.8-143.7 47.5-186.2-33.1-192.8c-80.7-6.6-103.9 123.3-110.2 174.5-6.4 51.2-9.9 157.8-9.9 157.8l-9.7 15c-9.7 15-134.1 173-212.5 165.2-78.4-7.8-92.7-28.9-103.7-130.5-11.1-101.6 64.4-262.6 80.6-290.3 16.1-27.7 30.7-70.1 5.3-85.2-25.4-15.1-43.6-16.8-82.8 34.3-39.2 51.1-78.3 180.3-89.4 223.7s-24.7 97.2-24.7 97.2-30.7 51.9-87.7 77.5-103.9-7-121.1-67.7c-17.2-60.7-64-200.3-64-200.3s-23-115.6-84.6-118.1c-77.2-3.2-138.9 89.3-160.2 115.4-21.3 26.2-58.9 74.9-58.9 74.9s1.5-36.5 4.3-90.8c51-76.1 163.4-248.7 222.6-376.8 78.1-169 200.7-478.6 43.9-560.6C1068.4 3 939.6 247.8 918.3 331.3c-31 121.5-60.6 347.4-67.1 523.9-2 54.5-4.7 117.3-7.5 178-42 58.5-141 185.8-275.5 289.7-197.2 152.4-378 77.8-351.1-215.2 28-305.1 201-300.3 201-300.3 74.3 13.7 77.4 91.6 83.7 146.9 6.2 55.3 36.4 55.1 36.4 55.1 49.2-3.2 38.6-72.6 35.3-123.5-3.3-50.9-31.9-206.4-188.7-167.6-156.9 38.8-272.3 265.1-279.6 414.9-7.3 149.8 32.8 291.3 185.7 346.1 153 54.8 239.3-12.5 320.6-77.9 73.6-59.2 202.6-216.2 226.4-245.4-4 80.1-7.1 138.4-7.1 138.4l-11.1 192.2s-10.9 89 30.1 92.8c40.9 3.8 36.3-35.1 43.9-65.9 7.5-30.8 51.2-270.1 123.3-357.3 72.1-87.2 119.5-93.8 134-63.6 14.5 30.1 78.8 186.2 91.4 209.7 12.6 23.4 37.6 117.8 128.7 96.3 80.4-19 138.8-62.4 151.5-72.4 4.6 20.4 11.2 40.5 20.7 56.8 32.3 55.1 97.6 107.5 197.7 83.2 100.1-24.2 213.3-161.8 219.2-169.2 5.8-7.4 6-1.3 12.3 18.9 6.3 20.2 21 57.1 38.4 70.2 17.4 13.1 44.4 44 130.2 32.3 49.3-6.7 93.6-40.6 122.4-68.2-53.2 78.9-83.1 383.8-81.4 438.1 1.7 54.3 24.2 346.5 145.9 360.9 121.7 14.4 134.9-146.9 135.9-187.8s-3.9-385.2-4.3-435c-.1-16.6-.1-72.9 0-140.7 123.3 80.5 187.3 82.5 287.7 61.6 38.2-7.9 70.9-23.6 98.3-43.3 22.5-2.6 177.2-80.1 187.3-83.8 10.1-3.7-2.9 15.4-3.6 47.7-.7 32.3 18 143.9 123.8 157.7 105.8 13.7 190.4-107.9 240.4-196.1 49.8-88.5 44.2-105.3 23.6-113.2zM1148.9 200.1c71.6 8 41.3 182.3 8.7 281.9-32.6 99.6-132.5 277.7-186.2 357.6-8 11.8-15.3 25.1-22.1 39.1 6.6-99.5 15.6-208.9 26.7-275.6 24.4-146.9 101.2-411 172.9-403zm1170.8 1811.5c-68.3-11.5-80.1-228.7-64.8-394 10.9-117.6 74.8-241 110.9-302.6 1.6 94 6.3 354.8 8.3 421.3 2.5 81.5 14 286.8-54.4 275.3zm354-626.8c-74.2 3-143.4-42.2-178.7-80.7-23.6-25.7-32.5-45-35.5-59.3.1-28 .1-54.8.2-78.8.1-57.7.2-73.1.2-73.1s102.5-159 236.8-140.5 185.2 124.6 174.9 231.5c-10.4 106.7-81.3 196.1-197.9 200.9zm591.9-561.5c38.5-74.3 26.7-124.9-16.1-137.2 0 0-63.4-16.7-91 79.3-27.7 96 68.6 132.1 107.1 57.9z" id="Layer_2"/></svg>