<svg xmlns="http://www.w3.org/2000/svg" viewBox="0 0 481.5 481.5"><style>.st2{fill:none;stroke:#333;stroke-width:3;stroke-miterlimit:10}</style><g id="Marquise"><path class="st2" d="M243.8 439.1s-102.5-37.2-102.5-197.4S244.4 39.1 244.4 39.1 351 80.8 351 241.7c0 160.8-107.2 197.4-107.2 197.4z"/><path class="st2" d="M244.8 39.5l-27.3 52.3-50.3 28.4 26.3 119.1-27.3 119 51.3 28.4 27.3 52.3m.4-399.5l27.3 52.3 50.3 28.4-26.3 119.1 29.4 119.9-53.4 27.5-27.3 52.3"/><path class="st2" d="M245.5 362.5L142.3 241.3 246.1 110l104 131.1zm-51.1 42.1l23.1-15.9 28-26.2 27 26.2 24.1 14.8M193.3 79.8l24.2 12 28.6 18.2 26.4-18.2 25-12"/><path class="st2" d="M217.5 91.8l-2 56.9-22 90.6 23 89.2 1 58.2m55 0l3.5-59.6 20.5-87.8-17.3-87.6-6.4-59.7"/></g></svg>