<svg xmlns="http://www.w3.org/2000/svg" width="18.5" height="20.601"><g id="package" transform="translate(-2.75 -1.729)" fill="none" stroke="#2c2c2b" stroke-linecap="round" stroke-linejoin="round" stroke-width=".5"><path id="Line_3" data-name="Line 3" transform="translate(7.5 4.21)" d="M9 5.19L0 0"/><path id="Path_1" data-name="Path 1" d="M21 16V8a2 2 0 0 0-1-1.73l-7-4a2 2 0 0 0-2 0l-7 4A2 2 0 0 0 3 8v8a2 2 0 0 0 1 1.73l7 4a2 2 0 0 0 2 0l7-4A2 2 0 0 0 21 16z"/><path id="Path_2" data-name="Path 2" d="M3.27 6.96L12 12.01l8.73-5.05"/><path id="Line_4" data-name="Line 4" transform="translate(12 12)" d="M0 10.08V0"/></g></svg>