<svg version="1.1" id="Layer_1" xmlns="http://www.w3.org/2000/svg" xmlns:xlink="http://www.w3.org/1999/xlink" x="0" y="0" viewBox="0 0 150 150" xml:space="preserve"><style>.st0,.st2{fill:none;stroke:#2c2c2b;stroke-width:2;stroke-miterlimit:10}.st2{stroke-width:.25}</style><path class="st0" d="M92.6 79.4l2.1-13.7H81.6v-8.9c0-3.8 1.8-7.4 7.7-7.4h6V37.8s-5.4-.9-10.6-.9c-10.8 0-17.9 6.6-17.9 18.4v10.4h-12v13.7h12v33.1c2.4.4 4.9.6 7.4.6s5-.2 7.4-.6V79.4h11z"/><path class="st0" d="M118.3 130.3H31.7c-6.6 0-12-5.4-12-12V31.7c0-6.6 5.4-12 12-12h86.7c6.6 0 12 5.4 12 12v86.7c-.1 6.5-5.5 11.9-12.1 11.9z"/><defs><path id="SVGID_1_" d="M42.9 19.7H32.2l-4 .5-3.2 1.5-3.1 3.1-1.7 3.2-.6 3.6v85.6l.2 3.1.6 2.3 1.8 3.1 2.5 2.3 3.8 1.8 3 .4h10.9c-12.9-5.5-11.1-16.7-11.3-30.6L30.9 41C31 30.7 39 19.8 46.4 19.8l-3.5-.1z"/></defs><clipPath id="SVGID_2_"><use xlink:href="#SVGID_1_" overflow="visible"/></clipPath><g clip-path="url(#SVGID_2_)"><path transform="rotate(-55.459 43.324 70.31)" class="st2" d="M-44.6 20.3h175.8v100H-44.6z"/><path class="st2" d="M132.6 25L32.9 169.9m97.9-146.1L31.1 168.6M129 22.5L29.3 167.4m97.9-146.1L27.5 166.2m97.9-146.1L25.7 164.9m97.9-146.1L23.9 163.7m97.9-146.1L22.1 162.5M120 16.4L20.3 161.2m98-146.1L18.5 160m98-146.1L16.8 158.8m97.9-146.1L15 157.5m97.9-146.1L13.2 156.3m97.9-146.1L11.4 155.1M109.3 9L9.6 153.8M107.5 7.7L7.8 152.6M105.7 6.5L6 151.4M103.9 5.3L4.2 150.1M102.1 4L2.4 148.9M100.3 2.8L.6 147.7m98-146.1L-1.2 146.4M96.8.3L-2.9 145.2M95-.9L-4.7 144M93.2-2.1L-6.5 142.7M91.4-3.4L-8.3 141.5M89.6-4.6l-99.7 144.9M87.8-5.8L-11.9 139M86-7l-99.7 144.8M84.2-8.3l-99.7 144.9M82.4-9.5l-99.7 144.8m97.9-146l-99.7 144.8M78.9-12l-99.7 144.9M77.1-13.2l-99.7 144.8m97.9-146l-99.7 144.8M73.5-15.7l-99.7 144.9M71.7-16.9L-28 127.9m97.9-146l-99.7 144.8M34.1 30l-65.7 95.5M68.1-19.4L42.7 17.5m23.6-38.1l-99.7 144.8m97.9-146L-35.2 123M62.7-23.1L-37 121.8M60.9-24.3l-99.7 144.9m98-146.1l-99.7 144.8M57.4-26.8l-99.7 144.9M55.6-28l-99.7 144.9M53.8-29.2l-99.7 144.8"/></g></svg>