<svg id="Component_41_1" data-name="Component 41 – 1" xmlns="http://www.w3.org/2000/svg" width="15.051" height="12.041"><path id="Path_1359" data-name="Path 1359" d="M1.506 10.536L8.09 2.68l3.092-1.534h3.145" fill="none" stroke="#707070" stroke-width=".75"/><g id="Ellipse_53" data-name="Ellipse 53" transform="translate(0 9.031)" fill="#f9f9f9" stroke="#707070" stroke-width=".75"><circle cx="1.505" cy="1.505" r="1.505" stroke="none"/><circle cx="1.505" cy="1.505" r="1.13" fill="none"/></g><g id="Path_1374" data-name="Path 1374" fill="#f9f9f9"><path d="M2.381 4.388c-1.106 0-2.006-.9-2.006-2.007 0-1.106.9-2.006 2.006-2.006 1.107 0 2.007.9 2.007 2.006 0 1.107-.9 2.007-2.007 2.007z" transform="translate(5.021 .753)"/><path d="M2.381.75a1.633 1.633 0 0 0 0 3.263c.9 0 1.632-.732 1.632-1.632 0-.9-.732-1.631-1.632-1.631m0-.75a2.381 2.381 0 1 1 0 4.763 2.381 2.381 0 0 1 0-4.763z" fill="#707070" transform="translate(5.021 .753)"/></g><g id="Ellipse_55" data-name="Ellipse 55" transform="translate(12.794)" fill="#fff" stroke="#707070" stroke-width=".75"><circle cx="1.129" cy="1.129" r="1.129" stroke="none"/><circle cx="1.129" cy="1.129" r=".754" fill="none"/></g><g id="Ellipse_56" data-name="Ellipse 56" transform="translate(9.783)" fill="#fff" stroke="#707070" stroke-width=".75"><circle cx="1.129" cy="1.129" r="1.129" stroke="none"/><circle cx="1.129" cy="1.129" r=".754" fill="none"/></g></svg>