<svg version="1.1" id="Layer_2_1_" xmlns="http://www.w3.org/2000/svg" x="0" y="0" viewBox="0 0 283.3 283.3" xml:space="preserve"><style>.st0{fill:none;stroke:#2b2e31;stroke-width:3;stroke-miterlimit:10}</style><path class="st0" d="M189.4 230.6c-13 6-27.4 9.3-42.6 9.3-22.8 0-43.8-7.5-60.8-20.1M237.1 90c7.5 14.2 11.8 30.5 11.8 47.7 0 26.7-10.2 50.9-27 69.1M91.1 52.2c16-10.4 35.1-16.5 55.7-16.5 22.8 0 43.8 7.4 60.7 20M61.8 194.2c-10.8-16.2-17-35.6-17-56.5 0-21.1 6.4-40.8 17.4-57.1"/><path transform="rotate(-21.636 146.768 137.801)" class="st0" d="M92.3 83.3h109v109h-109z"/><path transform="rotate(-68.364 146.768 137.853)" class="st0" d="M92.3 83.3h109v109h-109z"/><path class="st0" d="M200.2 66.1l-22.1.9-31.3-31.4L116.3 67l-20-1.4m121.2 140v-37.3l31.4-30.6-31.4-30.5.5-16.4M92.8 209.5l23.5-1 30.5 31.3 30.6-31.3 9.8.7M76.1 79.2v28l-31.4 30.5 31.4 30.6-.3 23.6"/><path class="st0" d="M229.6 208.4c-4-1.6-9.1-.2-12.3-3-.9-.7-1.5-1.7-2.2-2.6-1.4-1.8-3.3-3.4-5.5-4.1-3.8-1.2-7.9.6-11.6 2.3-2.3 1.1-4.6 2.2-6.6 3.7-1.2.9-2.3 1.9-3.3 3-2.7 3.1-4.7 6.9-4.7 11 .1 4.6 2.7 8.9 6 12.1 9.3 9 16.8 12.4 29.7 12.5 4.5 0 9.2-.3 13.3-2.2 8-3.8 6.7-13.9 14.2-17.8 4.7-2.1 6.9-8.6 8.1-13.5.9-3.7 1-7.6.9-11.4 0-4.6-.1-9.2-1.1-13.6-1.9-8.1-6.7-9.1-11.4-14.5m6.7-94.3c-5 5-9.7 10.3-14.2 15.8-4.2.8-8.5-1-12.8-1.2-2.7-.1-5.5.4-8.1-.4-1.4-.5-2.6-1.3-3.8-2.1-2.6-1.8-5.2-3.6-7.7-5.3-1.8-1.2-3.6-2.5-4.6-4.5-1.4-2.8-.5-6.1.3-9 1.5-5.2 4.5-8.6 7.8-12.8 1.9-2.3 3.9-4.5 6.4-6.2 2.6-1.8 5.5-3 8.6-3.8 8.1-2.1 17-1.2 24.5 2.5 5.4 2.6 10 6.6 14.2 10.7 1.7 1.7 3.5 3.5 4.1 5.9.4 1.5.3 3.2 0 4.7-.8 5-3 9.7-4.6 14.6-2 6.2-2.2 13.1-4.1 19.6-2.2 7.2-4.7 14.3-7.5 21.2M51 63.6c1 2.6 2.2 5 3.5 7.5 1 1.9 2.1 3.9 3.6 5.4 1.3 1.3 3.3 2 4.7 3.2 1.5 1.4 3.9 1.1 5.9.8l17.1-2.7c2.1-.3 4.3-.7 6.1-1.8 1.8-1.1 3.2-3.1 3.6-5.2.3-1.4.2-2.8.7-4.1.4-.8.9-1.5 1.1-2.4.2-1.1-.3-2.2-.7-3.2-2.3-5.6-5.2-9.6-6.4-15.5-.5-2.4-2.4-4.4-4.6-5.6s-4.7-1.7-7.2-2.2c-4.1-.7-8.1-1.3-12.2-1s-6.5 1.7-9.6 4.4C49 47.8 42.9 56 38.7 65.1c-.5 1-.9 1.9-1 3-.2 1.5.3 3 .7 4.4 1.3 4.4 2.7 9 4.1 13.4 2.1 6.6 4.3 11.4 7.6 17.5m-.3 96.8c2-1.6 2.8-4.4 5.1-5.7 3.7-2.2 9.5-1.1 13.6-1.4 5-.4 10-1.4 15.1-1 .6 0 1.3.1 1.8.4.8.4 1.3 1.3 1.8 2.1 1.9 3.4 3.5 7 4.7 10.7.6 1.9 1.2 3.9.6 5.8-.3 1.2-1 2.2-1.8 3.2-6.3 8.4-14.9 14.7-24.3 19.2-3.3 1.6-6.7 2.9-10.2 3.5-5.4.9-11.3-.2-15.2-4.2-4.3-4.4-4.3-11-7.8-15.3-.9-1.1-2.2-1.8-3-2.9-.7-1-.9-2.1-1.1-3.3-1.9-11.3.7-21.7 5.9-31.6 3.3-6.2 7.7-11.9 13-16.6"/></svg>