<svg version="1.1" id="Layer_1" xmlns="http://www.w3.org/2000/svg" x="0" y="0" viewBox="0 0 409 411" xml:space="preserve"><style>.st3,.st4{fill:none;stroke:#2b2e31;stroke-width:3;stroke-miterlimit:10}.st4{stroke-width:2}</style><g id="Layer_1_1_"><g id="Gemstone"><g id="Queen_of_Hearts"><path class="st3" d="M130.1 286c-13.6-22.4-21.8-51.1-21.8-82.4 0-28.3 6.7-54.6 18.1-75.9m136.2 178.1c-16.2 17.2-36.6 27.4-58.8 27.4-21.1 0-40.7-9.3-56.5-25.1M280.9 127c11.6 21.5 18.5 47.9 18.5 76.6 0 28.3-6.7 54.5-18.1 75.8M143.6 103.1c16.4-18.1 37.4-29 60.2-29 22.3 0 42.8 10.4 59.1 27.8m-33.7 17.6l34.6 119.7-86 48.7-34.1-120.5z"/><path class="st3" d="M178.3 119.5l-34.6 119.7 86 48.7 34.1-120.5zM117.1 255l26.2-14.5-33.8-35.5 33.8-36.2-27.2-13.2M290.4 255l-26.2-14.5L298 205l-33.8-36.2 27.2-13.2"/><path class="st3" d="M204.5 73.4l-26.2 46.7-9.9-37m-30.5 46.8l6.4 38.2m34-48l-32.9-4.4"/><path class="st3" d="M203.9 74.3l25.5 45.8 9.9-37m30.9 45l-6.8 40m-34-48l27.1-3.6m-52 217.3l-26.2-46.7-9.9 37m-31.8-39.3l7.7-45.7m34 48l-31.5 4.2"/><path class="st3" d="M203.9 332.9l25.5-45.8 9.9 37m30.6-46.6l-6.5-38.4m-34 48l30.4 4.1"/><path class="st4" d="M78.5 223.4c-1.3.3-2.7.4-4 .4-3.3 0-6.4-.8-9.1-2.2m24.5-30.7c2.9 3.5 4.7 8 4.7 12.9 0 3.5-.9 6.9-2.5 9.8M63 187.2c3.2-2.3 7.2-3.6 11.5-3.6 1.2 0 2.4.1 3.6.3m-21.9 28.2c-1.2-2.6-1.8-5.4-1.8-8.4 0-3.7 1-7.2 2.8-10.2"/><path transform="rotate(-21.636 74.406 203.754)" class="st4" d="M63.7 193h21.4v21.4H63.7z"/><path class="st4" d="M81.6 214.7l6.8-17-20-7.9-7.8 19.9 17.9 7.1"/><path class="st4" d="M60.6 195.3v2.4l-6.2 6 6.2 6-.1 2.8m20.1-22.7l-6.1-6.2-6.1 6.2-4.8-.3m24.8 22.6v-2.4l6.1-6-6.1-6v-2.8m-23.9 22.9l3.9-.2 6.1 6.2 4.3-4.5m15 15.8c3.2 3.6 5.2 8.3 5.2 13.5 0 1-.1 1.9-.2 2.8m-31-19.4c3.2-2.2 7.1-3.4 11.2-3.4m-13.2 35.1c-4.2-3.7-6.9-9.1-6.9-15.1 0-2.8.6-5.4 1.6-7.8m29.7 24.4c-3.2 2.2-7.1 3.4-11.2 3.4m9.8-12.4L73 262.5l-7.9-19.9 19.9-7.9 7 17.6"/><path transform="rotate(-68.364 78.885 248.65)" class="st4" d="M68.2 237.9h21.4v21.4H68.2z"/><path class="st4" d="M71 262.6l2-.1 6 6.2 6-6.2 1.8.1m-21.7-20l-6.2 6 6.2 6-.1 6m12.6-30.7l-4.6 4.8-6-.4m28.8 17.5l3.3-3.2-6.2-6 .2-8.2-8 .3m-.5 72.1c-3.8-2.7-6.6-6.6-7.8-11.2-.4-1.7-.7-3.4-.7-5.2 0-3.7 1-7.1 2.7-10 2.5-4.3 6.6-7.7 11.5-9.2m16.8 2.4c5.5 3.6 9.1 9.8 9.1 16.8 0 11.1-9 20.1-20.1 20.1-1.9 0-3.7-.3-5.5-.8"/><path transform="rotate(-21.636 96.07 290.364)" class="st4" d="M85.4 279.7h21.4v21.4H85.4z"/><path transform="rotate(-68.364 96.093 290.478)" class="st4" d="M85.4 279.8h21.4v21.4H85.4z"/><path class="st4" d="M91.6 275l-1.4 1.5-7.9-.6v8.5l-6.2 6 6.2 6-.1 8.3 8-.4 6 6.2 6-6.2 7.9.6v-8.5l6.1-6-6.1-6 .2-8.3-8 .4m15.8 69.9c-6.6-1.9-11.8-7.1-13.8-13.7m37.2 3.5c-1.6 3.2-4.2 6-7.2 7.9m5.7-28.6c1.7 2.3 2.8 5 3.4 7.9m-38.3-4.1c2.2-5.2 6.5-9.3 11.9-11.1m14.4 9.4l6.1 15.5-19.9 7.9-7.9-19.9 15.2-6"/><path transform="rotate(-68.364 123.512 327.205)" class="st4" d="M112.8 316.5h21.4v21.4h-21.4z"/><path class="st4" d="M119.6 311.2l-2 2-7.9-.5v8.4l-3.6 3.5m34.9 0l-3.5-3.5.2-5.2m-11.4 28.6l3.3-3.5 7.9.6v-8.5l1.4-1.3m-32.8-2.1l3.6 3.4-.1 8.3 8-.4 3.4 3.5m35.6-12.6c1.5-.3 3-.5 4.5-.5 6.6 0 12.5 3.2 16.1 8.1m-35.8 8.4c.6-3.5 2.1-6.6 4.3-9.2m15.4 32.8c-4.8 0-9.2-1.7-12.6-4.5m32.4-12.4c-.5 3.4-1.9 6.5-3.9 9.1"/><path transform="rotate(-21.636 160.978 351.39)" class="st4" d="M150.3 340.7h21.4v21.4h-21.4z"/><path class="st4" d="M154.2 340l-7 17.5 19.9 7.9 6.2-15.5m-.7-5.4l-15.8-6.3m-6.8 27.4l5.1-.2 6 6.1 6-6.1 3.7.2"/><path class="st4" d="M142.9 353.3l4.3 4.2v2.1m0-18.6v4.4l-3.9 3.8m31.8-8.2l.2-3.8-8 .3-6.2-6.1-2.9 3m16.8 29.3v-6.2l3.6-3.6m16.7-9.4c3.2-2.2 7.1-3.4 11.2-3.4 2.2 0 4.3.4 6.3 1m-26.1 22.2c-.2-1-.3-2.1-.3-3.2 0-2 .3-4 .9-5.8m30.4 22.4c-3.2 2.2-7.1 3.4-11.2 3.4-3.9 0-7.5-1.1-10.6-3m29.6-23.5c.7 2.1 1.1 4.3 1.1 6.5 0 2.4-.4 4.7-1.2 6.9"/><path transform="rotate(-21.636 206.381 361.095)" class="st4" d="M195.7 350.4h21.4v21.4h-21.4z"/><path transform="rotate(-68.364 206.448 361.209)" class="st4" d="M195.7 350.5h21.4v21.4h-21.4z"/><path class="st4" d="M192.6 355.1l-6.2 6 6.2 6v4.2m20.1-24.1l-6.2-6.2-6 6.2-5.2-.4m25.1 23.8v-3.5l6.2-6-6.2-6m-23.7 20.1l3.8-.2 6 6.2 6-6.2 3 .2m48.7-8.6c-3.7 4-8.9 6.5-14.8 6.5-2.3 0-4.4-.4-6.5-1.1m18.7-35c4.8 3.7 7.9 9.5 7.9 16 0 .7 0 1.4-.1 2.1m-34.7-15.7c3.7-4 8.9-6.5 14.8-6.5m-15.2 33.3c-3.1-3.5-4.9-8.1-4.9-13.2m8.1-6.8l14.8-5.9m4.8 3l6.2 15.7-19.9 7.9-7-17.7"/><path transform="rotate(-68.364 249.389 353.052)" class="st4" d="M238.7 342.3h21.4v21.4h-21.4z"/><path class="st4" d="M229.4 353l6.1 6-.1 8.3 8-.4 6 6.2 6-6.2 7.9.6V359l6.2-6-6.2-6 .3-8.2-3.1.1m-11.1-6l-6 6.2-7.9-.6m41.6 7.4c-3.7-1.4-6.9-3.9-9.1-7m35.2-5c-2 5.7-6.6 10.2-12.3 12.2m3.9-36.1c4.7 2.9 8.1 7.7 9.2 13.3m-38.5-3.2c.9-2.4 2.2-4.5 3.9-6.4"/><path transform="rotate(-21.636 284.181 327.09)" class="st4" d="M273.5 316.4h21.4v21.4h-21.4z"/><path class="st4" d="M298.2 321.1l-19.4-7.1-8.4 19.1 19.9 7.9zm4.6 4.5l-4.6-4.5.2-8.2-8 .3-1.4-1.4"/><path class="st4" d="M286.9 344.6l3.4-3.6 7.9.6v-8.5l2-1.9m-29.8 1.9l-.1 8.3 8-.4 3.1 3.2m-3.6-30l-7.4-1.5v8.4l-2.8 2.8m45.9-13.4c-6.2 0-11.8-2.8-15.5-7.3m35.5-10.8c-.6 6.3-4.2 11.8-9.3 15m-4.8-36.2c5.6 1.7 10.2 5.9 12.5 11.2m-38.3 5c.8-5.3 3.7-9.9 7.8-13"/><path transform="rotate(-21.636 313.384 290.397)" class="st4" d="M302.7 279.7h21.4v21.4h-21.4z"/><path transform="rotate(-68.364 313.39 290.463)" class="st4" d="M302.7 279.8h21.4v21.4h-21.4z"/><path class="st4" d="M331.3 288.2l-3.9-3.8.2-8.3-8 .4-1.3-1.4m-10.8 1.4l-7.9-.6v8.5l-6.2 6 6.2 6-.1 8.3 8-.4 6 6.2 6-6.2 7.9.6v-8.5l4.8-4.7m1.4-23.1h-1.4c-3.9 0-7.6-1.1-10.7-3.1m30-22.4c.5 1.7.8 3.6.8 5.5 0 6-2.6 11.3-6.8 15m-13.3-35.1c3.5 0 6.7.9 9.6 2.4m-29.2 22.2c-.3-1.4-.5-3-.5-4.5 0-4.4 1.4-8.4 3.8-11.7"/><path transform="rotate(-21.636 332.085 248.596)" class="st4" d="M321.4 237.9h21.4v21.4h-21.4z"/><path class="st4" d="M325.3 257.4l12.9 5.1 7.9-19.9-19.9-7.9-7 17.6m-.9-13.8v4.1l-6.2 6 4.3 4.2m11.3-19.6l-1.5 1.5m14.7-.1l-2.6.1-6.1-6.2-1.7 1.8"/><path class="st4" d="M324.5 262.6l1.7-.1 6 6.2 6-6.2 7.9.6v-8.5l6.1-6-6.1-6m-4.4-19.1c-1.1.2-2.2.3-3.4.3-2.1 0-4.1-.3-6-.9m24.4-27.2c1.1 2.5 1.7 5.2 1.7 8 0 4.1-1.2 7.9-3.3 11m-22.9-30.1c2-.6 4-1 6.2-1 1.3 0 2.5.1 3.7.3m-21.7 28.8c-1.4-2.7-2.1-5.8-2.1-9 0-2.6.5-5.1 1.4-7.3"/><path transform="rotate(-21.636 338.213 203.791)" class="st4" d="M327.5 193.1h21.4v21.4h-21.4z"/><path transform="rotate(-68.364 338.275 203.769)" class="st4" d="M327.6 193.1H349v21.4h-21.4z"/><path class="st4" d="M344.5 189.8l-6.2-6.2-6 6.2m19.9 19.9l6.2-6-6.2-6m-19.9 19.9l6 6.2 6.1-6.2m-20-19.9l-6.1 6 6.1 6m20.1-35c-3.4 2.6-7.7 4.2-12.3 4.2m-12.6-35.7c3.4-2.8 7.8-4.5 12.6-4.5 11.1 0 20.1 9 20.1 20.1 0 3.5-.9 6.7-2.4 9.6m-32.6 3.8c-3.2-3.6-5.2-8.3-5.2-13.4 0-1.1.1-2.2.3-3.3"/><path transform="rotate(-21.636 332.084 158.794)" class="st4" d="M321.4 148.1h21.4v21.4h-21.4z"/><path transform="rotate(-68.364 332.067 158.844)" class="st4" d="M321.4 148.1h21.4v21.4h-21.4z"/><path class="st4" d="M318.3 152.8l-6.2 6 6.2 6-.1 8.3m27.9-3.4v-4.9l6.1-6-6.1-6 .2-8.2-8 .3-6.1-6.2-6 6.2-7.9-.6m15.3 33.1l4.6-4.7 5.4.4m-16.7-71.9c4.9 3.7 8 9.5 8 16.1 0 1.2-.1 2.4-.3 3.5m-31.7 12.6c-4.9-3.7-8.1-9.5-8.1-16.1 0-9.2 6.2-16.9 14.6-19.3m19.9 33.2c-3 3.1-6.9 5.2-11.4 5.9"/><path transform="rotate(-21.636 314.807 117.357)" class="st4" d="M304.1 106.7h21.4v21.4h-21.4z"/><path transform="rotate(-68.364 314.803 117.38)" class="st4" d="M304.1 106.7h21.4v21.4h-21.4z"/><path class="st4" d="M310.8 101.4l-2 2-7.9-.6v8.5l-6.1 6 6.1 6-.1 8.3 8-.4 3 3m21.8-15.6l1.3-1.3-6.2-6 .3-8.3-3.9.2-4.1.2m-3.9 31.6l3.8-3.8 7.8.6v-8.5m-38.8-61.4c7.5.7 13.8 5.5 16.6 12.2m-36.8-.4c1.5-3.4 4-6.3 7.1-8.4M272 94.1c-1.6-2.1-2.8-4.5-3.4-7m36.7 5.1c-3.5 5.9-9.9 9.8-17.3 9.8m-7.5-9.9l-6.4-16.2L294 68l7.9 19.9-17 6.8"/><path transform="rotate(-68.364 287.95 81.987)" class="st4" d="M277.2 71.3h21.4v21.4h-21.4z"/><path class="st4" d="M271.6 85.5l2.5 2.4-.1 4.7m8-24.6l-7.9-.5v8.4m29.5 1.7l-1.7-1.7.2-8.2-8 .3-3.5-3.5M288 102l6-6.2 7.9.6v-8.5m-72.5-32c0-5.1 1.9-9.7 5-13.2m15 33.3c-5.9 0-11.1-2.5-14.8-6.5m34.5-9.8c-.7 3.7-2.4 7.1-4.9 9.7m-19.6-33c1.6-.4 3.2-.6 4.9-.6 6.9 0 13 3.5 16.6 8.8"/><path transform="rotate(-21.636 249.314 55.989)" class="st4" d="M238.6 45.3H260v21.4h-21.4z"/><path class="st4" d="M261.1 49l-17.7-7-7.9 19.9 19.9 7.9 6.9-17.3m1 15.9v-6.5l3.9-3.7"/><path class="st4" d="M233.3 59.8l2.2 2.1-.1 8.3 8-.4 6 6.2 6-6.2 3 .2m-22.9-27.3v7.2l-6.1 6 1.2 1.2m32.7-7.2l.3-8.2-8 .3-6.2-6.1-6 6.1M212 63c-3 1.8-6.6 2.9-10.4 2.9-1.8 0-3.5-.2-5.1-.7m24-26c.7 2.1 1.1 4.3 1.1 6.6 0 2.7-.5 5.3-1.5 7.7M191 28.8c3.1-1.9 6.7-3 10.5-3 4.8 0 9.2 1.7 12.6 4.4m-29.2 26.9c-2.2-3.2-3.4-7.1-3.4-11.2 0-2.9.6-5.6 1.7-8.1"/><path transform="rotate(-21.636 201.51 45.96)" class="st4" d="M190.8 35.3h21.4v21.4h-21.4z"/><path transform="rotate(-68.364 201.542 45.983)" class="st4" d="M190.8 35.3h21.4v21.4h-21.4z"/><path class="st4" d="M212.9 31.7l-5.2.3-6.2-6.2-6 6.2-1.6-.2m21.5 22.7v-2.6l6.2-6-6.2-6 .1-2.7m-20 22.6l6 6.1 6-6.1 3.6.2m-23.5-22.2v2.1l-6.1 6 6.1 6v4.2M144.8 44c3.7-4.6 9.3-7.5 15.7-7.5.7 0 1.4 0 2.1.1m-17.2 33.2c-2.7-3.1-4.6-7.1-5-11.4m35 11.4c-3.7 4.1-9 6.7-15 6.7-.9 0-1.8-.1-2.6-.2M173 40.9c4.6 3.7 7.5 9.3 7.5 15.6m-9.4 7.3l-16.7 6.6-6.8-17.3m1.1-3.4l17.7-7.1 6.4 16.2"/><path transform="rotate(-68.364 160.377 56.54)" class="st4" d="M149.7 45.8h21.4v21.4h-21.4z"/><path class="st4" d="M180.5 56.5l-6.2-6 .3-8.2-8 .3-6.2-6.1-6 6.1-7.9-.6v3m7.9 25.4l6 6.2 6-6.2 7.9.6m-32.7-13.3l4.9 4.8v5m-30 31.1c-3.1-1.2-5.9-3.2-8-5.7m33.3-4.5c-1.2 2.6-3 4.9-5.2 6.7M132.7 62c4.6 2.3 8.1 6.4 9.8 11.3m-38.7 3.3c.8-5 3.5-9.4 7.3-12.5 2.4-1.9 5.3-3.3 8.5-4m10.7 7.4l7.2 18.3-19.9 7.9-7.9-19.9 16.1-6.4"/><path class="st4" d="M137.5 73.8l-19.9-7.9-7.9 19.9 18.8 6.3z"/><path class="st4" d="M119.4 64.1l-1.8 1.8-7.9-.5v8.4l-2.1 2.1m29.9-2.1l.3-8.2-6.5.3m-.8 25.6l7 2.8v-8.5m-29.6-1.7l1.8 1.7-.1 8.3 8-.4 2 2.1m-45.1 21.5c0-7.6 4.2-14.2 10.4-17.6m2.3 36.3c-3.7-1.5-6.9-4-9.2-7.2m22.5-30.7c8.2 2.5 14.1 10.2 14.1 19.2 0 7.2-3.8 13.6-9.6 17.1"/><path transform="rotate(-21.636 94.475 117.263)" class="st4" d="M83.8 106.6h21.4V128H83.8z"/><path transform="rotate(-68.364 94.519 117.34)" class="st4" d="M83.8 106.6h21.4V128H83.8z"/><path class="st4" d="M78.9 121.6l1.7 1.7-.1 8.3 8-.4 1.4 1.4m-1.4-29.2l-7.9-.6v8.5l-6.1 6M98.7 133l1.8-1.8 7.9.6v-8.5l6.2-6-6.2-6 .3-8.3-8 .4-4.7-4.7m-18.9 40c3.7 0 7.1 1 10.1 2.7m-30.1 17.4c0-5.1 1.9-9.8 5.1-13.4m14.9 33.5c-4.8 0-9.3-1.7-12.7-4.6m32.1-20.7c.4 1.7.7 3.4.7 5.2 0 4.8-1.7 9.2-4.5 12.7"/><path transform="rotate(-21.636 76.979 158.796)" class="st4" d="M66.3 148.1h21.4v21.4H66.3z"/><path class="st4" d="M65.5 165.7l14.6 5.8m4.3-2.1l6.6-16.6-19.9-7.9-6.6 16.7m-1.4 9.9v1.6l8-.4 6 6.2 1-1m-14.9-33.6v8.5l-6.1 6 .9.9m25.3-14.8l-6.2-6.2-6 6.2M91 170.4v-5.6l6.2-6-6.2-6"/></g></g></g><g id="Layer_3"><g id="Metal"><g id="Queen_of_Hearts_1_"><path class="st3" d="M117.3 292.7c.8 1 2.4.2 3.4-.7 4.2-3.7 9.1-7.3 14.7-7.2 5.1 0 10 3.5 11.8 8.3.9 2.4 1 5 1 7.5 0 3.9-.5 8.2-3.1 11.1-.9 1-2 1.8-3.2 2.4-3.9 2.2-8.4 3.4-12.8 2.9s-10.2-6.1-12.8-9.8m176.1-18.8c-6.3-1-8.9-9.3-14.9-11.2-2.7-.9-5.6-.3-8.3.4-2.5.7-5.2 1.5-7 3.4-2.2 2.3-2.7 5.6-2.9 8.7-.4 8.5 2.1 17.9 9.3 22.4 6.8 4.2 15.7 2.8 23.1-.2 2.1-.8 4.4-2.1 4.7-4.3M111 105.6c3.5 2.7 2.2 8.5 4.6 12.2.9 1.5 2.4 2.6 3.9 3.7 4 2.9 8 5.9 12 8.8.5.4 1.1.8 1.7.9.8.2 1.6 0 2.4-.3 3.4-1.2 6.1-4.1 7.6-7.4 1.6-3.3 2.2-6.9 2.6-10.5.2-1.7.4-3.4 0-5-.5-2.1-1.9-3.8-3.2-5.5-1.8-2.2-3.7-4.3-5.6-6.4-1.5-1.6-2.9-3.6-5.1-4.1-10.8-2.7-15 7.8-16.9 8.7m174.1 3.1c-1.7-1.5-.1-13.7-14.3-11.4-2.2.4-3.6 2.7-5.3 4.2-3.4 3-7.6 5.2-10 8.9-2 3.1-2.6 6.9-3.1 10.5-.1 1-.3 2-.1 3 .2.9.7 1.7 1.2 2.5 1.3 1.9 2.6 4 4.6 5.1 1.5.8 3.2 1 4.9 1.2 5.3.5 10.7.3 15.7-1.5s9.4-5.4 11.4-10.4c.1-.2.2-.5 0-.7s-.5.2-.3.3M181.5 353.2c-.1.3-.4.4-.7.4-1.9.4-4.2.7-5.7-.6-.7-.6-1.2-1.5-1.5-2.3-.5-1.1-.9-2.2-1.2-3.3-.2-.8-.4-1.7-.4-2.5.1-1.3.8-2.4 1.9-3.1 1.3-.8 1.5-1.7 2.9-2m9 14.6l2.1 1.8c.3.3.7.6 1.1.6.3 0 .7-.1 1-.3.7-.4 1.4-.7 2-1.1 1.1-.6 2.2-1.3 2.8-2.4.5-.9.6-2 .6-3 .1-3.3-.1-6.6-.8-9.8m-30.2 29.7c2.2-1.3 4.2-2.9 6-4.6.5-.5 1-1 1.6-1.2.6-.3 1.2-.3 1.9-.3 3-.1 6.1.6 8.8 2m2.4-1.4c1.4-.2 3.1-.4 4.1.6.5.5.8 1.1 1.1 1.7.9 1.9 2 3.9 3.6 5.2.8.7 1.9 1.2 2.2 2.3.3.8.1 1.8-.2 2.6m38-40.6c-.3 1.3.3 2.6 1 3.7s1.5 2.2 1.8 3.5c.2 1 .1 2-.1 3.1-.3 1.9-.7 3.9-2.1 5.4-1.6 1.7-4.7 1.1-6.7-.2-.5 1.1-1.2 2.1-2.2 2.8-1 .7-2.2 1-3.4.8-.9-.2-1.7-.8-2.5-1.4-2.4-1.9-4.6-4-6.6-6.3-.5-.5-.9-1.1-1.1-1.8-.4-1.5.7-3.2 2.3-3.3m-.1 34.1c.1.2-.1.4-.3.4.5-2 1.9-3.7 3.7-4.6.7-.3 1.5-.6 2.2-1 .8-.5 1.5-1.3 2.2-2 1.1-.9 2.3-1.6 3.7-1.9m5.2-2.4c.5.9 1.5 1.4 2.5 1.6s2 .2 3.1.2c1.9 0 3.7-.1 5.6-.1.3 0 .7 0 1 .1.4.2.7.5.9.8.5.7 1 1.3 1.5 2m3.4-40.6c-.7 1.5-.5 3.2 0 4.7.6 1.5 1.5 2.9 2.2 4.3.7 1.3 1.2 2.7 2.1 3.9s2.6 1.9 3.9 1.3c1.3-.5 1.9-1.9 2.5-3.1s1.6-2.5 3-2.5m.8-17.6c1.5-.3 3 1 3.5 2.5s.5 3.1.9 4.6c.7 2.7 2.6 5.1 2.4 7.8 0 .9-.3 1.8-.9 2.4-.6.7-1.5 1.1-2.3 1m9.6 8.7c.8-1.3 2.2-2.2 3.7-2.6 1.1-.2 2.3-.1 3.4 0 2.1.2 4.2.4 6.3.5m-31.6 18.9c-.1-.5 0-.9.1-1.4.4-2 1.9-3.7 3.6-4.9s8.6-3.5 10.6-4.2m28.9-18.4c-.6-1-1.1-1.9-1.7-2.9-.2-.3-.3-.5-.3-.8 0-.4.3-.8.5-1.2 1.8-2.2 3.7-4.6 3.9-7.4m5.3-11.6c2.7-.6 5.2-2.1 7.1-4.2.4-.4.7-.9 1.2-1.1.7-.4 1.6-.4 2.4-.3.5 0 1 .1 1.5.3.5.2.9.6 1 1.1m-27.4-15.6c1.1.8 2.2 1.7 2.9 2.8.9 1.5 1.1 3.4.9 5.1-.2 1.8-.8 3.4-1.4 5.1m2.2-31.4c1.4 1.1 2.8 2.3 4.2 3.4.4.4.9.7 1.4.9.6.2 1.3.3 2 .3 3.1 0 6.3 0 9.1-1.3.9-.4 1.8-1.1 2.2-2 .2-.5.3-1 .4-1.5.2-1 .4-1.9.6-2.9.1-.5.2-1.1.4-1.6m11.4 9.5h-.4c-.5.7-.5 1.6-.3 2.5s.5 1.7.6 2.5c0 .9 0 1.8-.3 2.6-2 4.2 3 8.6 4.3 9.2"/><path class="st3" d="M334.4 267.7c-.2.1-.5 0-.6-.1 1.1-2.1 2.3-4.1 3.6-6.1.2-.3.5-.6.8-.8.3-.2.7-.2 1.1-.3 2.3-.3 3.7-2.2 5.8-2.9.3-.1.5-.2.8-.1s.6.3.9.5c.4.4.9.8 1.1 1.4.4 1 0 2.2-.5 3.3-2.3 5.1-4 10.5-6.1 15.7-2.2 5.3-4.7 10.6-7.4 15.7M321 266c.9-1.1 2.2-2 3-3.3.9-1.3 1.2-3 1-4.6s-.9-3.1-1.8-4.4c-.4-.5-.8-1-1.4-1.3-.4-.2-.9-.2-1.4-.2-1-.1-2.1-.1-3.1-.2-2.9 1-5.2 1.3-8.3 1.4m5.1-19c.6 1.1 1.4 2.2 2.3 3 .3.3.7.6 1.2.7.6.1 1.2-.1 1.8-.4 3.2-1.4 6.3-2.9 9.4-4.5.8-.4 1.6-.9 2-1.7.3-.5.3-1.2.3-1.7 0-.8 0-1.7-.1-2.5m10.9 3c-.6.8-1.1 1.6-1.5 2.5-.2.6-.4 1.2-.2 1.8.4 1.2 2 1.6 2.9 2.5.5.5.7 1.2 1 1.9.4 1.2.8 2.3 1.2 3.5.3.8.8 1.7 1.5 1.5m-5.9-20.8v.6c.8-1.8.8-3.9 1.6-5.7 1.2-2.7 3.9-4.4 6.5-5.8.4-.2 8.1 3.2 6.5 2.6m-37.4-1.4c1.8-.7 3.6-1.3 5.5-1.7.3-.1.6-.1 1 0 .5.1.8.6 1.2.9.8.7 2 .7 2.8 1.4.7.6 1 1.6 1.7 2.3s1.8 1.1 2.1 2c.1.3.1.7.2 1.1.1 1.3.1 2.7.2 4m-15-28.6c.5-.3.9.5 1.2 1 .7 1 2.3.7 3.6.9.8.1 1.5.5 2.3.4.4-.1.7-.2 1-.4.9-.5 1.9-1 2.8-1.5s1.9-1 2.6-1.7c1.2-1.2 1.7-2.9 2.1-4.5.1-.3.2-.6.1-.9-.1-.4-.3-.7-.5-1.1-.6-.9-1-2-1-3.1m11.1.4c-.6.6-.5 1.6 0 2.3s1.2 1.2 1.9 1.7c1.4 1.3 2 3.1 2.8 4.9.8 1.7 1.8 3.5 3.5 4.3m1.6-31.9c-1.1 1.1-7.5 3.7-7.9 5.1-.3.9-.4 1.8-.7 2.6s-.8 1.7-1.6 2.1m-27.3-2.3c1.7 0 3.4-.7 5.1-.9s3.7.1 4.7 1.6c.2.3.4.7.7.9.3.2.6.2.9.3 1.7.1 3.6-.5 5.1.4 1.2.8 1.6 2.3 1.9 3.8m-21.9-23.7c.8-.1 1.6.3 2.3.3 1.1 0 2.1-.7 2.9-1.5 1.6-1.3 3.2-2.7 4.8-4 .2-.2.4-.3.4-.5.1-.2 0-.5-.1-.7-.6-2-1.3-4.1-3-5.4-.3-.2-.6-.4-.7-.8-.1-.3.2-.8.5-.7m11.3-23c-1.8 1.1-2.4 3.5-2.3 5.7s.8 4.2.7 6.4m1.9 5.8c-.1.4.3.7.7.9 2.2 1 4.7 1.5 7.1 1.4m-18.7 4.2c-.4-1.3-.7-2.6-.9-4m-19.4-5.3c1.3-.6 2.5-1.1 3.9-1.3.8-.1 1.7 0 2.5.1 1.4.2 2.9.3 4.3.5s2.8.3 4.2.5c.6.1 1.1.2 1.6.4 1 .4 1.6 1.4 1.7 2.5m-12-61.7c-1.4 1.5-4.1 8.9-4 11 0 .8.2 1.6.5 2.3.3.5.7.9 1 1.4.5.7.8 1.6 1 2.5m4.7 6.6c1.9.8 2.7 3 4.3 4.3 1.1 1 2.7 1.6 4.2 1.8 1.6.3 3.2.2 4.8-.1m-75-27.8c.9.4 1.9 0 2.6-.6s1.2-1.5 1.7-2.3 1.1-1.6 2-2c.4-.2.9-.3 1.3-.4.7-.3 1.3-1 1.9-1.5 1-.9 2.3-1.5 3.7-1.6.8-.1 1.6 0 2.4.2.9.2 1.7.5 2.4 1s1.3 1.3 1.3 2.2c0 .3 0 .6.2.8s.5.3.9.3c.7.1 1.4.3 2 .6.4.2.8.5 1.2.7.4.2.8.2 1.2.4 1.3.5 2.4 1.8 2.5 3.3.1 1.4-.6 2.7-1.3 3.9-.5.8-1 1.7-1.7 2.3-.5.5-1.1.8-1.6 1.3-1.6 1.4-2.3 3.6-2.9 5.7m9.4-27.5c-.1.1-.1.4 0 .5.8 1.3 2.3 1.9 3.8 2.2 1 .2 1.9.4 2.9.5.3 0 .6.1.8 0 .6-.2 1-.8 1.3-1.4m-22.9-16.8c-.3 1.3-.6 2.7-.1 3.9.4 1 1.2 1.8 2.1 2.5 1.3 1.2 2.7 2.3 4 3.5h-.4m-45.2-2.9c-1.4-2.1-4.5-3-6.8-1.8-1.4.7-2.5 2-3.4 3.2-.5.7-1 1.4-1.2 2.2s0 1.6.2 2.3c.4 1.3.9 2.4 1.5 3.6.6 1.3 1.2 2.7 1.9 4m12.7-12.4c1 .2 1.9 0 2.9 0s2 .2 2.7.9c.5.5.6 1.3.8 2 .3 1.7.7 3.4 1 5.1.1.6.2 1.2.2 1.8-.1.6-.4 1.2-.7 1.7-.8 1.4-2 2.6-3.3 3.6v-.6M213.6 34c.5 1.2 1.1 2.5 2.1 3.3.7.5 1.5.9 2.3 1.2 1.2.5 2.5 1 3.6 1.7.9.6 1.8 1.4 2.1 2.5 0-.1-.1-.3-.1-.4m6.5 1.7c1-.1 1.9-.6 2.8-1 1.6-.6 3.4-.9 5.1-.8.9.1 1.9.3 2.8.1.8-.2 1.5-.7 1.9-1.4M164 39.4c-.1 0-.2-.2-.2-.4 1.1 1.1 2.3 2.2 3.9 2.5 2.1.5 4.3-.4 6.4-.8.6-.1 1.4-.1 1.9.3m8.5-2.1c.2-.7.8-1.2 1.5-1.4s1.4-.2 2.1-.2c2.6-.1 5.4-1.2 6.7-3.4m-10.7 24.3c-.7-.2-5.9-2.1-6.6-2.3-1.5-.5-3.1.2-4.2 1.4-1 1.1-1.5 2.7-1.9 4.2-.3 1.5-.5 3.1.1 4.5.9 2 3.2 3 4.7 4.6 1.1 1.3 1.7 2.9 3 4.1m6.8-16.8c.7-1 1.6-1.9 2.5-2.7.2-.1.4-.3.7-.3.2 0 .4.1.6.3 2.3 1.7 4.6 3.6 5.9 6.1 1.4 2.5 1.7 5.7.4 8.3-.9 1.8-2.7 3.3-2.6 5.3m-48.4-2c-.6-2.2.4-4.8 2.3-6.1.4-.3.8-.5 1.2-.4.6 0 1 .5 1.4.9.6.7 1.1 1.5 1.8 2.1 1.4 1.3 3.4 2 4.5 3.5.5.7.8 1.6 1.1 2.5.8 2.4 1.6 4.8 2.4 7.1m-15.7-9.3c-.8.2-5.4 1.8-6.2 2.2-.2.1-.5.2-.6.4-.3.4-.2.8-.2 1.3.1 1.9-.9 3.9-.4 5.8.4 1.2 1.3 2.2 2.2 3.1.8.8 1.6 1.5 2.4 2.3.6.5 1.1 1.1 1.9 1.4 1.4.5 2.9 0 4.2-.5m-27.6-25c-.3.1 0 .6.3.7 2 .8 4.4 1 5.9 2.6.4.5.9 1.1 1.5 1 .3 0 .5-.2.8-.3.7-.5 1.5-.9 2.2-1.4.9-.6 2-1.3 2.1-2.4v-1.1c.1-1 1.1-1.8 2-1.7m10.4-15c1.1-.2 2.1.5 2.6 1.5s.6 2.1.7 3.1c0 .3 0 .7-.1 1-.1.2-.2.4-.4.5-.6.7-1.2 1.4-1.8 2.2-.4.4-.7.9-1.2 1.2-.7.4-1.6.4-2.3.8-.7.3-1.3 1.3-.8 2M85.2 101c.4 1 .9 1.8 1.7 2.5.9.8 2.1 1.5 3.3 1 .6-.2 1.1-.7 1.5-1.2.7-.9 1.4-1.8 1.9-2.8.3-.6.7-1.2 1.2-1.6.5-.3 1.1-.5 1.7-.5 3.4-.4 7 .7 9.6 3m1.2-25.7c1.5.4 2.7 1.8 2.9 3.4s-.5 3.2-1.4 4.5c-.5.7-1 1.3-1.3 2.1-.2.5-.2 1.1-.2 1.7.2 2.9 2 5.7 4.6 7m-23.1 45.9c-.4-.9-.7-1.8-1.1-2.7-.2-.5-.4-.9-.4-1.4 0-.8.6-1.6 1.1-2.2.7-.7 1.4-1.4 2.1-2 .4-.3.8-.6 1.3-.7.8-.2 1.6.1 2.3.5s1.3 1 2 1.3c1.2.6 2.5.6 3.8.6s2.6-.1 3.9.3c1.2.4 2.4 1.3 2.7 2.5m-18.6 5.1c-1.1.5-2.4 1.1-2.8 2.3-.3.8-.2 1.7 0 2.6.2 1.1.5 2.2 1.2 3.2 1.1 1.5 3.1 2.3 3.9 4 .2.4.3.7.5 1 .4.4 1.1.5 1.6.5 1.4-.1 2.7-.6 4.1-.6 1.5 0 2.9.5 4 1.4m-35.8-7.6c0-.1-.2 0-.1.1s.1.1.2.1c1-.1 1.9-.5 2.8-1 .9-.5 1.9-1 2.5-1.8.4-.5.7-1.2 1-1.8.7-1.4 1.7-2.7 2.9-3.7.9-.7 2-1.4 2.4-2.5m.6-22.2c.7 0 1.4.5 1.8 1.1s.5 1.3.6 2.1c.1 1.3 0 2.5-.4 3.7-.3.9-.7 1.8-.8 2.7-.3 2 .5 3.9 1.3 5.7m-17.6 29.3c1.8.4 3.2 2.1 3.6 3.9.4 1.8-.1 3.7-1 5.4-.3.5-.6 1.1-.7 1.7-.1.7.1 1.4.3 2.1.5 1.8.7 3.6.6 5.4m-1.7 8.1c-.2.9-.2 1.9-.3 2.9-.2 2.8-1.6 5.4-3.8 7.2m33.4-6c-3.7 5.6-5.8 4.2-9.5 2.9-.7-.2-1.2-1.9-1.7-2.1-.7-.3-.5-.6-1-1.2-.7-.7-1.4-1.4-2-2.2s-1.1-1.8-1-2.8.7-2 1.7-2.2m-.6-2.9c-.3-1-.4-5 0-5.9.6-1.1 1.2-2.2 2.3-2.8.7-.4 1.4-.7 2.2-.9 1.2-.4 2.4-.7 3.6-1.1.7-.2 1.5-.4 2.3-.3.7.1 1.3.6 1.8 1 .7.5 1.3.9 2.1 1.1.8.2 1.7.1 2.3-.3M57.4 213c1.1.3 2.1.5 3.2.8.7.2 1.5.4 2 .9.6.5.9 1.3 1.1 2.1.8 2.1 1.7 4.2 2.7 6.3.4.8.8 1.7.7 2.6m-6.5 17.2c1.2.4 2.6-.4 3.3-1.5s1-2.4 1.2-3.7c.3-1.3.7-2.6 1.6-3.5.4-.5 1-.9 1.2-1.5.2-.9-.7-1.7-.4-2.5m12.2-5.2c-1.1-.6-2.3-1.5-2.1-2.6.1-.4.2-.7.3-1 .3-1 0-2 .1-3 .3-1.6 1.8-2.7 3.2-3.5 1.2-.8 2.5-1.5 3.7-2.3.7-.4 1.4-.8 2.2-.8.7 0 1.3.4 2 .6 1.1.5 2.3.7 3.4.7m-14.7 14.4c-.7 1.1-.4 2.7.6 3.6.5.4 1.1.7 1.7 1.1.8.6 1.3 1.4 2.2 1.9 1.6.9 3.6.4 5.4.2 1.3-.1 2.7-.1 4 .2.5.1 1.1.3 1.6.2 1.1-.1 1.9-1.2 2.6-2.1m5.6 18.9c-1.2.1-5.5 0-6.8 0-1.4 0-2.7.7-3.7 1.7s-1.7 2.2-2.4 3.4c-.6 1-1.1 1.9-1.7 2.9-.3.6-.7 1.2-.6 1.9.1.9.8 1.6 1.4 2.1 1 .9 2.1 1.8 3.1 2.7m.3 3.7c-.2.6-.3 1.1-.5 1.7-.1.6-.2 1.1-.1 1.7.1.5.5 1 .8 1.4.7 1 1.5 1.9 2.2 2.9.6.7 1.2 1.5 2.1 1.8 1.3.4 2.6-.5 3.9-1.1s2.7-.9 4-1.3c1.3-.5 2.7-1.2 3.4-2.5.4-.7.6-1.5.9-2.2s.9-1.4 1.7-1.5m-43.7-10c2.2-.7 4.9.6 5.7 2.7.4.9.5 2 1.3 2.7.4.4.9.5 1.4.7 1.4.5 2.9 1.3 3.7 2.6 1.1 2 .1 4.5.1 6.9 0 1.7.6 3.4.9 5.2s.1 3.7-1.1 4.9m7.4 18.7c.8-.2 1.7-.3 2.4.1s1 1.2 1.3 2c.4 1 1 2 1.9 2.7.7.5 1.5.8 2.3 1.2.9.5 1.6 1.1 2.2 1.9m6.6 4.5c.9.8 2.4.8 3.2 1.8.6.8.5 1.8.4 2.8 0 1.3.1 2.5.4 3.7.2 1 .6 2 .7 3 0 .1 0 .2.1.2s0-.2 0-.1m14.3 15.6c1.5.1 3 0 4.5-.3 2-.3 4-.9 6-.9s4.2.7 5.3 2.4m2.6.9c1 .3 2 .7 2.7 1.5.9 1.1.9 2.7 1 4.1.2 2.4 1 4.9 2.6 6.7.1-.2.2-.4.1-.7m1-36.1c-3.6.3-8.9 4.9-9.2 6-.1.5-.3 1-.2 1.5.1.4.3.9.5 1.3.7 1.3 1.4 2.6 2 3.8.2.3.3.6.6.8.4.3.9.2 1.3.2.6 0 1.2-.1 1.8-.1.2 0 .4 0 .5.1s.2.3.2.4c.1.6.2 1.3.3 1.9m12.5-8.9c-.3.3-.3.8-.3 1.3.2 1.7 1.2 3.3 1 5s-1.6 3.1-3.1 4.1-3.1 1.8-4.7 2.5c-.2.1-.4.1-.6.1s-.4-.1-.6-.3c-.7-.5-1.3-1.1-1.7-1.8-.3 0-.2.7-.3.4-.7-1-1.3-2-1.9-3.1.1.1.1.2.2.3m30.6 3c.9-.8 1.9-1.4 3-1.8m17.7 36.8c-.2 1.4-.9 2.7-1.9 3.6m-90.9-46.6c-7.2-7.3-13.6-15.5-18.8-24.3m131.7 69.9c8.6-.9 17.1-2.9 25.1-6.1m26-10.2c8.5-4.6 16.6-9.8 24.3-15.8m10.9-11.8c8.7-7.9 16.4-17.1 22.7-27m30.1-93.2c-.6 10.9-2.2 21.8-4.7 32.5m1.3-84.4c2.1 10 3.8 22.3 4.4 32.4m-21.8-74c4.5 7.8 8.6 15.9 12.4 24"/><path class="st3" d="M304.7 75.5c.7-.6 1.7-.8 2.6-.6s1.7.8 2.1 1.6c.5 1.1.3 2.2.4 3.4 0 1 .6 1.4 1.1 2.1 1.4 1.9 2.8 3.9 4.2 5.8 2.8 3.9 5.6 7.8 8.8 11.4m-56.6-52.3c7.5 4.7 14.8 9.5 22 14.6M214 30.3c8 .4 16 1.6 23.8 3.5 2.5.6 5 1.4 7.2 2.7m-81.7-.9c8.3-2.9 17-4.9 25.7-6m-68.4 30.5c7-5.8 14.6-10.8 22.7-15m-59 53.6c5.8-7.7 12.3-14.8 19.3-21.3m-41.4 67.2c2.3-9.8 6.2-19.1 11.5-27.7m-17.5 41.6c-.7 10.9-.4 21.9 1 32.7m-.5 20.7l-1.5-1.8c.3 10.7 1.9 21.4 4.7 31.8m4.7 19.3c1.6 12.8 6.2 25.3 13.3 36.1m39.7 49.6c8.8 8.8 19.2 16 30.6 21.2m13.1 3.2c12.9 5.5 26.7 9 40.7 10.2M356.7 194c-.2 1.2-.6 2.4-1.6 3-.5.3-1.1.5-1.6.6-.6.2-1.2.3-1.9.2s-1.3-.4-1.5-1m-20.8-76.6c.5-.8 2.1-2 2.9-2.4.2-.1.5-.2.8-.1.1.1.2.2.2.3 1.4 2.4 2.8 4.8 4 7.2"/><path class="st3" d="M320.9 105.4c1.3-.3 3.6-.9 4.6-1.8.5-.4.9-.9.9-1.5.1-.8-.6-1.5-1.2-2-.9-.8-1.9-1.6-2.8-2.3m-37.6-30.4c0-.6.6-1 1.2-1.1.9-.3 1.9-.3 2.8-.6.6-.2 1.2-.7 1.6-1.2.3-.4.5-.9.4-1.3-.1-.2-.2-.5-.4-.7l-1.5-1.8m-19.8-13c-1-.7-1.9-1.3-2.9-2-.6-.4-1.4-.9-2.2-.7-.8.3-1.1 1.3-1.3 2.1-.3 1.3-.6 2.6-.8 3.8 0 .1 0 .2.1.2m-17.5-15c.6.1.9.7.8 1.3 0 .6-.4 1.1-.7 1.5-.9 1.2-2.1 2.2-3.5 2.8m-26.3-11.5c-.8.1-1.4.8-1.7 1.5-.3.7-.2 1.6 0 2.3s.6 1.4 1 2.1c.1.2.2.4.3.5m-26.1-6.9c1.1-.2 2.3-.4 3.4-.2s2.3.8 2.8 1.8c.4.8.3 1.7 0 2.5s-.8 1.5-1.5 2m-28.7-1c-.9.3-1.5 1.2-1.6 2.1-.1.9.4 1.9 1.2 2.4M142 44.9c.7-.7 1.8-.8 2.8-.5.9.3 1.7.9 2.4 1.6.2.2.4.5.6.8 0 0 0 .1.1.1v-.1m-27 12.3c-.4.2-.7.6-1 1.1-.5.9-.7 2.1-.3 3.1s1.2 1.9 2.3 2.1m-19.6 13c.5-.8 1.3-1.4 2.1-1.9.4-.2.7-.4 1.1-.5 1-.3 2 .1 2.9.4.2.1.3.1.4.3M85.1 97.1c-.5 2.1.2 4.5 1.6 6.1m-13.9 15c.5-.9 1-1.8 1.9-2.2.4-.2.9-.3 1.4-.4.5-.1 1-.1 1.4.1.7.1 1.3.5 1.9.5m-16.8 26.9c0 .7-.2 1.4-.2 2.1-.1.7 0 1.4.4 2 .3.5.9.8 1.5 1 1.1.4 2.4.5 3.4-.2m-2.9 13.2c-1.7-.8-3.3-1.6-5.2-1.9-.9-.1-1.9-.1-2.7.3m-.3 31.1c0-.1-.1-.2-.1-.4.6 1.8 1.3 3.6 2.3 5.3.4.7.8 1.4 1.6 1.5m-6 13.6c1.7.2 3.3 1 4.8 1.9.5.3.9.5 1.3.9m-1.2 26c.3 1.2 1.2 2.3 2.2 3m4.7 17.8c-.1-.1-.2 0-.4 0-.5.4-.8 1.1-.7 1.8m21.5 42.6c-.3-.2-.6-.2-.9-.1s-.5.3-.7.5c-.5.6-.7 1.3-.6 2.1.1 1 .8 1.8 1.4 2.6m17.1 22.2c.9.7 2.3.7 3.1-.1.4-.4.7-1 .8-1.6s.1-1.2.1-1.8m11.5 20c-.3-.7-.5-1.5-.4-2.3.1-.9.7-1.7 1.6-2.1.5-.2 1.2-.3 1.7-.3.7 0 1.4.1 1.9.6m22.2 14.4c1 .5 1.9 1 2.8 1.6.4.3.9.6 1.2 1.1.7.9 1 2.1.7 3.2s-1.1 2.1-2.1 2.5c-.6.3-1.4.4-2 0m19.2 2c-1.2-.1-2.5.2-3.6.6-.3.1-.6.3-.7.7 0 .2 0 .4.1.5.3.6.8.9 1.4 1.2m52.2 4.1c-.3.1-.6.3-.6.6 0 .1.1.2.1.2.5.6 1.3.9 2.1 1 .9.2 1.8.3 2.7.2l-.1.1m25.7-9.4c.2.2.2.6.1.9s-.4.5-.7.7c-1.5 1.1-3.2 2-4.9 2.6m19.8-10.7c-.2.8-.2 1.7 0 2.5s.8 1.5 1.6 1.8c.7.3 1.5.1 2.2-.2s1.3-.8 1.9-1.3c2.2-1.8 4.6-3.4 7-4.8m17.5-15.6l1.2.3c.4.1.8.2 1.1.4.3.2.6.6.6 1s-.3.8-.7.8m9.4-13.7c0 .6.5 1.1 1 1.2.6.2 1.2 0 1.6-.3.5-.3.8-.8 1.1-1.3m18.2-27.7c.8.2 1.8.4 2.2 1.2.3.4.3 1 .1 1.4s-.6.8-1 1"/><path d="M128.8 93.5c1.9.3 3.8.7 5.7 1 .4.1.8.2.9.5m86.2-40.5c2.2 1 4.8.2 7.1.9" fill="none" stroke="#2b2e31" stroke-miterlimit="10"/></g></g></g></svg>